<svg version="1.1" id="logo-full-bg" xmlns="http://www.w3.org/2000/svg" xmlns:xlink="http://www.w3.org/1999/xlink" x="0px" y="0px"
	 viewBox="0 0 1280 1024"  xml:space="preserve">

	<path style="fill:#FFF;" d="M315.493,578.882c4.321-11.945,6.514-24.698,6.514-37.902c0-16.209-2.868-30.858-8.527-43.542
		c-5.672-12.695-13.623-23.449-23.627-31.96c-9.997-8.501-21.88-14.774-35.324-18.647c-13.404-3.851-28.044-5.118-43.53-3.763
		c-14.262,1.249-28.226,5.012-41.508,11.19c-13.273,6.174-25.185,14.354-35.396,24.307c-10.211,9.965-18.472,21.675-24.553,34.806
		c-6.096,13.172-9.19,27.462-9.19,42.471c0,16.201,2.776,30.975,8.249,43.911c5.473,12.957,13.237,24.074,23.071,33.042
		c9.826,8.974,21.673,15.658,35.205,19.868c10.112,3.148,21.094,4.744,32.635,4.744c3.849,0,7.832-0.177,11.844-0.528
		c10.696-0.935,20.672-2.833,29.657-5.644c8.44-2.637,16.455-6.412,23.846-11.23l15.286,16.756l51.807-12.596l-34.557-32.079
		C305.278,601.443,311.363,590.281,315.493,578.882z M262.455,560.645c-1.259,4.168-3.014,8.136-5.231,11.828l-12.813-12.167
		l-53.204,11.272l32.091,29.017c-3.916,1.398-7.951,2.284-12.038,2.641c-7.343,0.649-14.318-0.175-20.807-2.435
		c-6.482-2.26-12.205-5.715-17.011-10.271c-4.83-4.57-8.706-10.221-11.526-16.8c-2.836-6.567-4.274-14.066-4.274-22.285
		c0-6.474,1.434-12.906,4.262-19.119c2.832-6.266,6.736-11.998,11.601-17.041c4.869-5.04,10.656-9.288,17.201-12.628
		c6.514-3.33,13.552-5.346,20.911-5.991c1.577-0.137,3.134-0.207,4.671-0.207c5.6,0,11.021,0.931,16.113,2.768
		c6.486,2.345,12.165,5.846,16.892,10.402c4.738,4.569,8.535,10.062,11.284,16.329c2.748,6.234,4.138,12.942,4.138,19.938
		C264.715,550.73,263.957,555.691,262.455,560.645z"/>
	<polygon style="fill:#FFF;" points="567.552,418.394 531.727,544.386 494.393,424.796 450.717,428.615 410.865,554.921 
		378.285,436.626 377.833,434.993 320.414,440.016 379.854,634.001 380.339,635.573 435.232,630.772 472.549,517.316 
		505.832,624.594 561.006,619.768 625.185,413.352 	"/>
	<path style="fill:#FFF;" d="M263.278,347.329l-2.514-101.333l-77.428,108.326L19.353,368.669l-0.004,395.617l998.722-87.378
		l2.514,101.333l77.428-108.326l163.982-14.347L1262,259.95L263.278,347.329z M1229.464,295.379l-0.004,330.453l-148.168,12.962
		l-30.518,42.693l0-0.005l30.515-42.688l148.171-12.964L1229.464,295.379z M1053.741,637.122l0.794,32.105l24.537-34.321
		l-24.537,34.323L1053.741,637.122z M1225.397,299.815v0.002l-997.789,87.296L1225.397,299.815z M51.889,398.404l-0.002,141.621
		l0.002-141.623l148.168-12.962l30.518-42.693v0.003l-30.515,42.691L51.889,398.404z M55.956,402.13v187.191l-0.002-0.001
		L55.956,402.13z M231.042,361.524l0.526,21.16l-0.004,0L231.042,361.524z M257.002,258.254l2.319,93.503l-2.323-93.498
		L257.002,258.254z M27.483,755.407l0.004-379.288l160.285-14.022l65.465-91.583l2.129,85.671l-0.004,0l-2.125-85.671
		l-65.461,91.583L27.487,376.121L27.483,755.407z M51.885,728.856v-0.002l841.46-73.617L51.885,728.856z M63.026,719.717
		l-3.007,0.262l0.004-314.124l144.47-12.638l18.556-25.951l0.596,24.275l997.686-87.286l-0.004,314.124l-144.47,12.638
		l-18.556,25.951l-0.596-24.275L63.026,719.717z M1050.309,662.767l-0.527-21.216l0.004,0L1050.309,662.767z M1024.346,765.982
		l-2.319-93.503l2.324,93.497L1024.346,765.982z M1253.862,648.116l-160.285,14.022l-65.465,91.583l-2.129-85.671l0.004,0
		l2.125,85.671l65.461-91.583l160.289-14.024l0.004-379.285L1253.862,648.116z"/>
	<polygon style="fill:#FFF;" points="989.106,381.513 849.374,393.74 849.374,441.132 891.637,437.434 891.637,590.842 
		946.839,586.011 946.839,432.603 989.106,428.905 	"/>
	<path style="fill:#FFF;" d="M1121.911,570.694l58.753-5.139l-75.629-194.183l-58.634,5.129l-77.225,207.556l58.737-5.139
		l13.564-35.364l67.65-5.92L1121.911,570.694z M1057.014,498.977l18.548-56.576l18.317,53.352L1057.014,498.977z"/>
	<path style="fill:#FFF;" d="M810.937,419.454c-10.239-8.197-22.194-14.318-35.531-18.194c-13.325-3.86-27.313-5.187-41.58-3.934
		c-14.258,1.249-28.223,5.012-41.504,11.19c-13.289,6.18-25.196,14.359-35.4,24.306c-10.211,9.967-18.472,21.678-24.549,34.806
		c-6.101,13.17-9.195,27.46-9.195,42.471c0,16.191,2.777,30.965,8.25,43.913c5.481,12.962,13.241,24.078,23.071,33.04
		c9.834,8.978,21.677,15.662,35.205,19.868c10.116,3.148,21.098,4.745,32.635,4.745h0.004c3.848,0,7.832-0.177,11.839-0.528
		c16.006-1.4,30.951-5.429,44.415-11.975c13.472-6.551,25.264-15.267,35.046-25.907c9.778-10.632,17.503-23.052,22.96-36.913
		c5.457-13.867,8.225-29.102,8.225-45.279c0-15.045-3.098-28.824-9.214-40.956C829.512,437.99,821.207,427.678,810.937,419.454z
		 M721.478,543.259c-5.187,5.928-11.915,9.294-19.997,10.001c-8.674,0.765-15.653-1.44-21.157-6.736
		c-5.517-5.322-8.909-12.263-10.1-20.744c-0.588-2.931-0.965-5.922-1.12-8.891c-0.147-2.879,0.072-5.858,0.663-8.934
		c1.223-8.217,3.729-15.875,7.451-22.758c3.717-6.853,9.067-12.89,15.906-17.948c1.831-1.374,3.737-2.687,5.664-3.898
		c1.843-1.15,3.761-2.109,5.707-2.852c0.421-0.075,1.184-0.258,2.82-0.725l4.278-1.275l0.102-2.012l0.001,0v2.007
		c0.234,0,0.504,0.062,0.787,0.173c0.282,0.117,0.603,0.248,0.603,1.209l0.008,6.823c0,0.006-0.024,0.127-0.151,0.415
		c-0.572,0.592-0.846,0.727-0.806,0.731c-3.173,0.282-7.189,1.998-12.268,5.245c-5.27,3.35-8.781,9.786-10.414,19.03
		c-0.341,1.483-0.433,3.185-0.27,5.093c0.235,2.288,1.068,3.896,2.471,4.788c0.846,0.671,2.704,1.152,5.362,0.185
		c1.883-0.685,2.899-0.884,3.428-0.929c4.933-0.431,8.964-0.139,11.935,0.88c2.99,1.013,5.826,2.583,8.432,4.675
		c5.04,4.017,7.598,10.417,7.598,19.022C728.409,532.194,726.141,537.896,721.478,543.259z M793.803,536.927
		c-5.286,6.019-11.832,9.292-20.01,10.006c-8.69,0.757-15.656-1.432-21.161-6.734c-5.509-5.318-8.897-12.259-10.088-20.75
		c-0.584-2.862-0.961-5.852-1.128-8.879c-0.135-2.911,0.083-5.89,0.671-8.944c1.22-8.238,3.726-15.893,7.443-22.756
		c3.714-6.853,9.06-12.888,15.903-17.948c1.811-1.359,3.717-2.671,5.66-3.896c1.831-1.142,3.75-2.101,5.707-2.854
		c0.401-0.069,1.144-0.246,2.828-0.725l4.262-1.273l0.113-2.011c0,0,0.001,0,0.001,0v2.005c0.238,0,0.513,0.064,0.79,0.169
		c0.27,0.113,0.604,0.252,0.604,1.213l0.012,6.817c-0.004,0.006-0.028,0.127-0.159,0.425c-0.548,0.572-0.838,0.719-0.806,0.727
		c-3.157,0.282-7.169,1.998-12.268,5.244c-5.274,3.354-8.785,9.79-10.406,19.014c-0.353,1.478-0.445,3.19-0.27,5.086
		c0.21,2.288,1.037,3.904,2.459,4.807c0.842,0.671,2.677,1.166,5.365,0.191c1.891-0.687,2.908-0.886,3.432-0.931
		c4.933-0.429,8.96-0.137,11.935,0.879c3.011,1.019,5.846,2.59,8.436,4.671c5.04,4.025,7.593,10.425,7.593,19.026
		C800.721,525.772,798.39,531.636,793.803,536.927z"/>

</svg>
