<?xml version="1.0" standalone="no"?>
<!DOCTYPE svg PUBLIC "-//W3C//DTD SVG 20010904//EN"
 "http://www.w3.org/TR/2001/REC-SVG-20010904/DTD/svg10.dtd">
<svg version="1.0" xmlns="http://www.w3.org/2000/svg"
 width="16.000000pt" height="16.000000pt" viewBox="0 0 16.000000 16.000000"
 preserveAspectRatio="xMidYMid meet">
<metadata>
Created by potrace 1.11, written by Peter Selinger 2001-2013
</metadata>
<g transform="translate(0.000000,16.000000) scale(0.001250,-0.001250)"
fill="#000000" stroke="none">
<path d="M7031 11417 c-7 -12 -33 -49 -58 -82 -24 -33 -77 -107 -118 -165 -41
-58 -78 -109 -82 -115 -9 -10 -346 -482 -373 -522 -8 -12 -64 -90 -125 -175
-60 -84 -117 -163 -125 -175 -68 -98 -382 -533 -389 -537 -7 -5 -67 -11 -191
-21 -36 -3 -81 -7 -100 -10 -19 -2 -73 -7 -120 -10 -47 -4 -101 -8 -120 -10
-19 -2 -71 -6 -115 -10 -44 -3 -96 -8 -115 -10 -19 -3 -69 -7 -110 -10 -41 -3
-93 -8 -115 -10 -118 -11 -226 -20 -345 -30 -36 -3 -85 -8 -110 -10 -25 -2
-79 -7 -120 -10 -41 -3 -93 -7 -115 -10 -49 -5 -126 -12 -220 -20 -38 -3 -88
-8 -110 -10 -22 -2 -80 -7 -130 -10 -49 -4 -101 -8 -115 -11 -14 -2 -65 -6
-115 -10 -49 -3 -100 -7 -113 -9 -12 -2 -64 -7 -115 -11 -50 -4 -99 -8 -107
-10 -8 -1 -18 -3 -22 -3 -5 -1 -8 -1484 -8 -3297 l0 -3296 42 6 c47 6 125 13
233 21 39 3 90 7 115 10 25 2 70 7 100 9 59 6 171 15 235 21 47 4 266 23 345
30 179 15 265 23 320 29 25 3 74 8 110 11 77 6 193 16 235 20 17 2 68 6 115
10 47 4 99 8 115 10 17 1 64 6 105 9 88 8 143 13 225 20 60 6 122 11 245 21
36 3 82 8 103 11 31 4 37 2 38 -13 3 -56 8 -216 13 -428 8 -332 18 -698 21
-835 2 -63 4 -179 5 -257 2 -79 6 -143 9 -143 3 1 25 29 49 63 54 76 243 341
552 773 129 180 253 353 275 384 22 32 83 117 135 189 52 73 105 147 117 164
78 116 160 220 173 222 15 2 128 12 230 21 30 2 78 6 105 9 93 9 209 19 348
30 55 5 126 11 212 20 22 2 76 6 120 9 92 8 175 15 225 21 19 2 73 7 120 10
47 4 96 8 110 10 14 2 63 6 110 10 47 3 101 8 120 10 19 2 71 7 115 10 80 6
141 11 225 20 25 3 81 7 125 10 44 4 96 8 115 10 19 2 71 6 115 10 44 3 91 8
105 10 14 2 65 7 115 10 49 4 92 9 95 12 3 2 5 1485 6 3294 l1 3289 -41 0
c-23 0 -81 -5 -131 -10 -49 -5 -124 -12 -165 -15 -41 -3 -91 -8 -110 -10 -19
-2 -71 -7 -115 -10 -44 -3 -98 -8 -120 -10 -22 -3 -71 -7 -108 -10 -143 -12
-184 -15 -237 -20 -30 -3 -80 -7 -110 -10 -30 -2 -80 -7 -110 -10 -129 -11
-159 -14 -230 -20 -41 -3 -95 -8 -120 -10 -25 -3 -74 -7 -110 -10 -61 -5 -119
-10 -235 -20 -27 -3 -75 -7 -105 -10 -30 -2 -82 -7 -115 -10 -33 -3 -89 -7
-125 -10 -36 -3 -85 -7 -110 -10 -44 -5 -104 -10 -226 -20 l-61 -5 -3 147 c-1
82 -4 193 -5 248 -2 55 -6 210 -9 345 -24 944 -23 931 -28 935 -2 2 -10 -6
-17 -18z m-605 -2080 c1 -34 3 -119 4 -189 l2 -128 24 0 c22 0 894 76 2179
190 248 22 453 40 458 40 4 0 7 -1177 7 -2615 l0 -2614 -32 -5 c-18 -3 -559
-51 -1203 -107 -643 -56 -1171 -102 -1171 -103 -1 0 -70 -97 -153 -213 -84
-117 -154 -213 -155 -213 -4 0 -5 53 -10 318 l-1 84 -45 -6 c-124 -15 -2611
-228 -2615 -224 -5 5 -8 5218 -3 5223 2 2 525 49 1163 104 638 56 1179 103
1202 106 41 6 43 8 190 214 81 115 150 206 153 204 2 -2 5 -32 6 -66z"/>
<path d="M6417 8245 c-1 -2 -27 -5 -57 -8 -143 -16 -167 -19 -190 -27 -14 -5
-42 -11 -63 -15 -68 -11 -229 -61 -332 -103 -395 -161 -737 -441 -959 -785
-127 -197 -235 -466 -261 -652 -21 -150 -23 -199 -20 -355 1 -96 5 -182 8
-190 3 -8 8 -40 12 -70 3 -30 12 -81 21 -113 8 -32 19 -77 24 -100 18 -87 131
-354 173 -407 7 -8 18 -26 26 -40 27 -49 121 -166 193 -241 215 -222 505 -374
828 -435 41 -8 89 -17 105 -20 49 -10 451 -12 508 -3 73 12 128 20 157 24 53
7 181 36 220 50 22 8 44 14 48 15 52 3 306 117 383 171 l26 18 85 -92 c47 -51
105 -114 129 -140 l44 -48 250 61 c337 82 457 111 475 115 55 11 116 29 123
35 4 4 -34 45 -84 91 -51 46 -100 91 -108 99 -20 19 -259 241 -323 300 l-47
43 43 61 c190 270 318 591 353 889 15 125 7 504 -12 560 -2 7 -7 30 -10 51 -8
57 -51 215 -74 275 -146 370 -417 659 -772 825 -85 40 -251 98 -310 110 -13 2
-44 9 -69 14 -25 6 -70 13 -100 17 -30 3 -64 9 -74 12 -17 5 -363 12 -369 8z
m213 -913 c156 -38 287 -111 393 -218 209 -213 289 -512 213 -799 -24 -88 -82
-225 -96 -225 -3 0 -52 44 -109 98 l-104 99 -131 -29 c-127 -27 -255 -54 -306
-64 -14 -3 -33 -7 -42 -10 -9 -3 -27 -7 -40 -9 -21 -4 -96 -20 -143 -29 -11
-3 -62 -13 -113 -24 -51 -11 -95 -22 -98 -24 -2 -3 17 -25 44 -49 48 -44 225
-205 246 -224 6 -5 54 -48 106 -95 118 -106 120 -108 120 -113 0 -2 -26 -11
-57 -20 -283 -77 -593 6 -792 213 -153 159 -234 372 -234 615 0 144 22 235 90
369 64 125 175 257 289 346 120 94 317 179 454 197 25 3 46 7 48 8 8 8 222 -3
262 -13z"/>
</g>
</svg>
